<?xml version="1.0" encoding="UTF-8" standalone="no"?>
<!-- Uploaded to: SVG Repo, www.svgrepo.com, Generator: SVG Repo Mixer Tools -->

<svg
   version="1.1"
   id="Capa_1"
   viewBox="0 0 151.12556 151.15801"
   xml:space="preserve"
   width="153.56734"
   height="153.60031"
   sodipodi:docname="pan-logo.svg"
   inkscape:version="1.4 (e7c3feb100, 2024-10-09)"
   xmlns:inkscape="http://www.inkscape.org/namespaces/inkscape"
   xmlns:sodipodi="http://sodipodi.sourceforge.net/DTD/sodipodi-0.dtd"
   xmlns="http://www.w3.org/2000/svg"
   xmlns:svg="http://www.w3.org/2000/svg"><defs
   id="defs7" /><sodipodi:namedview
   id="namedview7"
   pagecolor="#ffffff"
   bordercolor="#111111"
   borderopacity="1"
   inkscape:showpageshadow="0"
   inkscape:pageopacity="0"
   inkscape:pagecheckerboard="1"
   inkscape:deskcolor="#d1d1d1"
   inkscape:zoom="1.5625"
   inkscape:cx="255.68"
   inkscape:cy="158.08"
   inkscape:window-width="1920"
   inkscape:window-height="1011"
   inkscape:window-x="0"
   inkscape:window-y="0"
   inkscape:window-maximized="1"
   inkscape:current-layer="Capa_1" />
<g
   id="g7"
   transform="matrix(-0.3,0,0,-0.3,151.14161,151.158)">
	<path
   style="fill:#e95b2d"
   d="M 194.69,153.517 57.193,16.019 C 45.834,4.661 27.416,4.661 16.056,16.019 4.697,27.378 4.697,45.796 16.056,57.156 l 137.497,137.496 c -54.422,74.218 -48.09,179.056 19,246.146 74.083,74.083 194.197,74.083 268.281,0 74.084,-74.084 74.084,-194.197 0,-268.281 -67.089,-67.091 -171.926,-73.422 -246.144,-19 z"
   id="path1" />
	<path
   style="fill:#faba45"
   d="m 303.561,240.73 -2.111,2.11 c -19.344,-5.032 -40.764,0.014 -55.917,15.168 -16.07,16.07 -20.773,39.188 -14.142,59.4 -9.304,19.856 -5.76,44.242 10.643,60.643 20.928,20.932 54.864,20.93 75.793,0.002 l 61.529,-61.529 c 20.929,-20.93 20.93,-54.865 0,-75.795 -20.931,-20.931 -54.866,-20.929 -75.795,10e-4 z"
   id="path2" />
	<circle
   style="fill:#e95b2d"
   cx="286.72601"
   cy="299.203"
   r="29.444"
   id="circle2" />
	<path
   style="fill:#0f2639"
   d="m 446.138,167.212 c -37.246,-37.245 -86.767,-57.758 -139.44,-57.758 -40.095,0 -78.396,11.834 -111.18,34.284 L 62.496,10.715 C 55.586,3.806 46.398,0 36.625,0 26.852,0 17.664,3.805 10.753,10.715 c -14.266,14.266 -14.266,37.478 0,51.744 l 133.024,133.023 c -25.021,36.602 -36.987,80.893 -33.771,125.456 3.407,47.205 23.737,91.655 57.244,125.163 37.247,37.246 86.768,57.759 139.443,57.759 52.675,0 102.197,-20.513 139.444,-57.759 76.891,-76.89 76.891,-201.999 10e-4,-278.889 z m -10.606,268.281 c -34.414,34.414 -80.169,53.366 -128.838,53.366 -48.668,0 -94.423,-18.952 -128.837,-53.366 -30.959,-30.959 -49.742,-72.025 -52.89,-115.636 -3.116,-43.173 9.184,-86.064 34.635,-120.772 l 3.805,-5.188 L 21.36,51.852 C 12.943,43.435 12.943,29.74 21.36,21.323 25.437,17.245 30.858,15 36.625,15 c 5.767,0 11.188,2.245 15.265,6.322 l 142.046,142.047 5.189,-3.805 c 31.325,-22.969 68.523,-35.11 107.573,-35.11 48.666,0 94.421,18.952 128.834,53.365 71.041,71.041 71.041,186.633 0,257.674 z"
   id="path3" />
	<path
   style="fill:#0f2639"
   d="m 422.024,191.327 c -63.593,-63.59 -167.065,-63.59 -230.658,0 -30.759,30.758 -47.698,71.716 -47.698,115.328 -0.001,43.612 16.939,84.571 47.697,115.33 l 10.606,-10.607 c -27.925,-27.925 -43.304,-65.116 -43.304,-104.723 0,-39.605 15.379,-76.796 43.305,-104.721 57.745,-57.744 151.701,-57.744 209.445,0 27.925,27.925 43.304,65.115 43.304,104.721 -10e-4,39.605 -15.379,76.796 -43.305,104.721 l 10.607,10.607 c 30.758,-30.759 47.698,-71.717 47.698,-115.328 0,-43.612 -16.939,-84.57 -47.697,-115.328 z"
   id="path4" />
	<path
   style="fill:#0f2639"
   d="m 384.659,235.425 c -11.539,-11.539 -26.88,-17.894 -43.2,-17.894 -15.937,0 -30.943,6.062 -42.383,17.092 -4.071,-0.775 -8.214,-1.167 -12.368,-1.167 -17.561,0 -34.067,6.836 -46.48,19.248 -16.937,16.938 -23.249,41.309 -16.82,64.23 -9.291,22.639 -4.113,48.989 13.321,66.419 11.538,11.54 26.88,17.896 43.2,17.896 16.319,0 31.661,-6.355 43.2,-17.893 l 61.529,-61.529 c 23.821,-23.822 23.822,-62.581 10e-4,-86.402 z m -72.136,137.324 c -8.705,8.706 -20.281,13.5 -32.593,13.5 -12.313,0 -23.888,-4.795 -32.594,-13.502 -13.683,-13.681 -17.362,-34.641 -9.154,-52.156 l 1.262,-2.694 -0.928,-2.826 c -6.01,-18.317 -1.29,-38.15 12.319,-51.76 9.58,-9.579 22.319,-14.855 35.873,-14.855 4.339,0 8.664,0.553 12.853,1.643 l 4.154,1.08 5.148,-5.146 c 8.707,-8.707 20.282,-13.502 32.595,-13.502 12.313,0 23.888,4.795 32.593,13.501 17.972,17.972 17.972,47.215 0,65.187 z"
   id="path5" />
	<path
   style="fill:#0f2639"
   d="m 369.246,440.907 6.322,13.602 c 10.994,-5.109 21.43,-11.472 31.016,-18.908 L 397.39,423.75 c -8.699,6.747 -18.168,12.52 -28.144,17.157 z"
   id="path6" />
	<path
   style="fill:#0f2639"
   d="m 286.727,262.259 c -9.868,0 -19.146,3.843 -26.124,10.82 -6.977,6.979 -10.821,16.256 -10.821,26.124 -0.001,9.869 3.843,19.147 10.821,26.124 6.978,6.977 16.255,10.819 26.122,10.819 9.868,0 19.146,-3.843 26.124,-10.82 14.404,-14.404 14.404,-37.842 -10e-4,-52.246 -6.976,-6.978 -16.253,-10.821 -26.121,-10.821 z m 15.516,52.46 c -4.145,4.145 -9.656,6.428 -15.518,6.428 -5.861,0 -11.371,-2.282 -15.516,-6.427 -4.145,-4.145 -6.427,-9.654 -6.427,-15.517 0,-5.861 2.283,-11.372 6.427,-15.517 4.145,-4.146 9.656,-6.428 15.517,-6.428 5.861,0 11.371,2.282 15.516,6.427 8.556,8.557 8.557,22.479 10e-4,31.034 z"
   id="path7" />
</g>















</svg>
